<svg width="210" height="206" viewBox="0 0 210 206" fill="none" xmlns="http://www.w3.org/2000/svg">
<path d="M183.75 85.8333C183.75 145.917 105 197.417 105 197.417C105 197.417 26.25 145.917 26.25 85.8333C26.25 65.3454 34.5469 45.6965 49.3153 31.2093C64.0838 16.7222 84.1142 8.58334 105 8.58334C125.886 8.58334 145.916 16.7222 160.685 31.2093C175.453 45.6965 183.75 65.3454 183.75 85.8333Z" fill="#88A8CE"/>
<path d="M105 111.583C119.497 111.583 131.25 100.055 131.25 85.8333C131.25 71.612 119.497 60.0833 105 60.0833C90.5025 60.0833 78.75 71.612 78.75 85.8333C78.75 100.055 90.5025 111.583 105 111.583Z" fill="#88A8CE"/>
<path d="M183.75 85.8333C183.75 145.917 105 197.417 105 197.417C105 197.417 26.25 145.917 26.25 85.8333C26.25 65.3454 34.5469 45.6965 49.3153 31.2093C64.0838 16.7222 84.1142 8.58334 105 8.58334C125.886 8.58334 145.916 16.7222 160.685 31.2093C175.453 45.6965 183.75 65.3454 183.75 85.8333Z" stroke="#060C18" stroke-width="12" stroke-linecap="round" stroke-linejoin="round"/>
<path d="M105 111.583C119.497 111.583 131.25 100.055 131.25 85.8333C131.25 71.612 119.497 60.0833 105 60.0833C90.5025 60.0833 78.75 71.612 78.75 85.8333C78.75 100.055 90.5025 111.583 105 111.583Z" stroke="#060C18" stroke-width="12" stroke-linecap="round" stroke-linejoin="round"/>
</svg>
