<svg width="507" height="327" viewBox="0 0 507 327" fill="none" xmlns="http://www.w3.org/2000/svg">
<path d="M116.713 124.942L9 147.257L12.8636 165.635L271.661 279.976L489.028 172.178L368.13 123.417L272.227 160.139L167.344 117.94L116.713 124.942Z" fill="#2BC230" stroke="#66D246" stroke-width="14"/>
<path d="M337.125 81.25C337.125 138.125 262.5 186.875 262.5 186.875C262.5 186.875 187.875 138.125 187.875 81.25C187.875 61.856 195.737 43.2564 209.732 29.5428C223.727 15.8292 242.708 8.125 262.5 8.125C282.292 8.125 301.273 15.8292 315.268 29.5428C329.263 43.2564 337.125 61.856 337.125 81.25Z" fill="#88A8CE"/>
<path d="M262.5 105.625C276.238 105.625 287.375 94.7119 287.375 81.25C287.375 67.7881 276.238 56.875 262.5 56.875C248.762 56.875 237.625 67.7881 237.625 81.25C237.625 94.7119 248.762 105.625 262.5 105.625Z" fill="#88A8CE"/>
<path d="M337.125 81.25C337.125 138.125 262.5 186.875 262.5 186.875C262.5 186.875 187.875 138.125 187.875 81.25C187.875 61.856 195.737 43.2564 209.732 29.5428C223.727 15.8292 242.708 8.125 262.5 8.125C282.292 8.125 301.273 15.8292 315.268 29.5428C329.263 43.2564 337.125 61.856 337.125 81.25Z" stroke="#060C18" stroke-width="12" stroke-linecap="round" stroke-linejoin="round"/>
<path d="M262.5 105.625C276.238 105.625 287.375 94.7119 287.375 81.25C287.375 67.7881 276.238 56.875 262.5 56.875C248.762 56.875 237.625 67.7881 237.625 81.25C237.625 94.7119 248.762 105.625 262.5 105.625Z" stroke="#060C18" stroke-width="12" stroke-linecap="round" stroke-linejoin="round"/>
</svg>
